<?xml version="1.0" standalone="no"?><!DOCTYPE svg PUBLIC "-//W3C//DTD SVG 1.1//EN" "http://www.w3.org/Graphics/SVG/1.1/DTD/svg11.dtd"><svg t="1730373894268" class="icon" viewBox="0 0 1024 1024" version="1.1" xmlns="http://www.w3.org/2000/svg" p-id="12378" xmlns:xlink="http://www.w3.org/1999/xlink" width="200" height="200"><path d="M749.299079 322.879712c0.186242 0.030699 0.37146 0.093121 0.621147 0.124843-1.119497-2.832512-1.680269-6.193049-2.613524-9.241478-1.431605-5.819542-2.117221-12.167111-3.858888-17.800411l-0.871857 0.217964c-1.494027-5.16565-2.987031-10.331299-4.107551-16.025998-54.518684-8.121981-111.026676-31.055297-161.250544-71.91182-27.321252-22.280446-49.602721-47.546899-67.649749-74.15286 0.124843-0.187265 0.248663-0.405229 0.37453-0.62217-3.485381-3.734044-5.788843-7.561209-8.464789-11.388375-3.175319-5.072529-5.91164-10.268878-8.713452-15.434527-1.617847-3.734044-3.609201-7.53051-4.356214-11.202133l-2.240017-0.404206c0-0.124843-0.12382-0.217964-0.12382-0.342808l-1.058099 0.124843-0.623193-0.124843c-0.062422 0.063445-0.062422 0.124843-0.062422 0.187265l-2.862187 0.311085c-0.74599 4.575202-2.552126 9.304923-4.355191 14.033621-2.053776 4.418636-4.232394 8.775874-6.534833 13.132088-2.178619 3.733021-3.921309 7.498788-6.90834 11.202133 0.24764 0.373507 0.559748 0.684592 0.74599 1.058099-23.586185 39.924291-57.504692 77.234035-101.31857 107.137089-40.079834 27.321252-82.772168 44.187385-124.780935 52.806693-0.809435 2.052752-1.556449 4.075829-2.552126 6.098905 0 3.080152-0.248663 6.223748-0.497327 9.397021-19.417235 74.899874-19.790742 163.80267 5.975085 255.413134 40.949644 145.380088 133.431965 253.077949 233.44275 290.638403l-0.435928 1.648546c4.231371 1.929955 8.463766 3.858888 12.508895 6.005784 1.307785-0.373507 2.675946-1.088798 4.045129-1.49505 0.809435 0.217964 1.617847 0.686638 2.489704 0.934279 4.481058-2.209318 9.149381-4.263094 14.127765-6.193049l-0.249687-0.86981c100.011808-37.559431 192.493106-145.289014 233.443773-290.670126C764.981247 478.964606 765.540995 395.102616 749.299079 322.879712zM701.50147 554.424228c-36.470633 129.449257-121.047914 225.196948-210.603579 251.959475-89.555665-26.761504-174.132946-122.510218-210.602555-251.959475-23.587208-83.737146-21.408589-164.984588-0.747014-231.451396 35.473933-11.04659 70.885444-27.010167 104.678084-50.099025 43.565215-29.747511 78.043471-65.812915 104.430444-104.585987 18.421558 24.520463 39.083134 48.201815 64.84896 69.143777 45.804209 37.309744 96.090499 62.078871 146.128125 75.615165C723.158722 381.131417 726.270597 466.611254 701.50147 554.424228z" fill="#13227a" p-id="12379"></path><path d="M455.673645 417.788292l76.735685 0 0-31.864732L423.808914 385.92356l0 0.995677 0 30.869055 0 64.195068-40.700981 0 0 157.795862 206.060099 0L589.168032 481.983359 455.673645 481.983359 455.673645 417.788292zM545.913902 606.701872 426.298618 606.701872l0-91.64014 119.616308 0L545.914926 606.701872z" fill="#13227a" p-id="12380"></path></svg>